<svg id="Layer_1" height="512" viewBox="0 0 256 256" width="512" xmlns="http://www.w3.org/2000/svg"><g><g><path d="m235.5 244.202h-215c-2.761 0-5-2.239-5-5v-64.366c0-2.761 2.239-5 5-5h215c2.761 0 5 2.239 5 5v64.366c0 2.761-2.239 5-5 5z" fill="#8c3f0a"/></g><g><path d="m21.5 226.836c-1.104 0-2-.896-2-2v-40c0-1.104.896-2 2-2s2 .896 2 2v40c0 1.104-.896 2-2 2zm0-48c-1.104 0-2-.896-2-2v-1c0-1.104.896-2 2-2s2 .896 2 2v1c0 1.104-.896 2-2 2z" fill="#995222"/></g><g><path d="m235.5 169.836h-5v59.366c0 2.762-2.239 5-5 5h-210v5c0 2.762 2.239 5 5 5h215c2.761 0 5-2.238 5-5v-64.366c0-2.761-2.239-5-5-5z" fill="#7c3108"/></g><g><path d="m235.5 169.836v64.366c0 2.762-2.239 5-5 5h-215c0 2.762 2.239 5 5 5h215c2.761 0 5-2.238 5-5v-64.366c0-2.761-2.239-5-5-5z" fill="#6d2e03"/></g><g><g><path d="m60.514 169.836h134.972v74.366h-134.972z" fill="#939598"/></g><g><path d="m60.514 239.202h134.972v5h-134.972z" fill="#808285"/></g><g><g><path d="m128 37.668-67.486 54.844v77.324h134.972v-77.323z" fill="#f1f2f2"/></g><g><path d="m190.486 88.449v71.387c0 2.761-2.239 5-5 5h-124.972v5h134.972v-77.323z" fill="#e6e7e8"/></g></g><g><g><path d="m95.5 169.836v-92.791c0-1.105.895-2 2-2h61c1.105 0 2 .895 2 2v92.791z" fill="#f2ad97"/></g><g><path d="m101.011 169.836v-87.28c0-1.105.895-2 2-2h49.978c1.105 0 2 .895 2 2v87.28z" fill="#995222"/></g><g><path d="m152.989 80.556h-3v79.28c0 2.761-2.239 5-5 5h-43.978v5h53.978v-87.28c0-1.104-.896-2-2-2z" fill="#8c3f0a"/></g><g><g><g><path d="m125.257 122.046h-15.729v-31.327h15.729zm-12.73-3h9.729v-25.327h-9.729z" fill="#6d2e03"/></g><g><path d="m146.473 122.046h-15.729v-31.327h15.729zm-12.73-3h9.729v-25.327h-9.729z" fill="#6d2e03"/></g></g><g><g><path d="m125.257 160.516h-15.729v-31.328h15.729zm-12.73-3h9.729v-25.328h-9.729z" fill="#6d2e03"/></g><g><path d="m146.473 160.516h-15.729v-31.328h15.729zm-12.73-3h9.729v-25.328h-9.729z" fill="#6d2e03"/></g></g></g><g><circle cx="105.542" cy="125.609" fill="#ffc91d" r="2.756"/></g></g><g><path d="m174.656 169.836c-1.105 0-2 .896-2 2v23h-28c-1.105 0-2 .896-2 2v23h-28c-1.105 0-2 .896-2 2v22.366h82.83v-74.366z" fill="#ffc91d"/></g><g><path d="m190.486 169.836v64.366c0 2.761-2.239 5-5 5h-72.83v5h82.83v-74.366z" fill="#ffa91a"/></g><g><path d="m211.526 76.411-76.391-62.081c-4.154-3.376-10.106-3.376-14.258 0l-76.702 62.335c-4.845 3.937-5.581 11.056-1.643 15.9 3.936 4.846 11.058 5.582 15.9 1.643l69.574-56.541 69.573 56.541c5.99 4.377 13.152 2.533 16.664-2.695 3.244-4.829 1.798-11.433-2.717-15.102z" fill="#377de2"/></g><g><path d="m214.244 86.513c-3.512 5.229-10.674 7.073-16.664 2.696l-69.573-56.541-69.575 56.54c-4.843 3.938-11.964 3.203-15.9-1.644-1.136-1.397-1.87-2.985-2.242-4.63-.74 3.268-.036 6.829 2.242 9.63 3.936 4.846 11.058 5.582 15.9 1.644l69.574-56.541 69.573 56.541c5.99 4.377 13.152 2.533 16.664-2.696 1.699-2.53 2.101-5.545 1.459-8.373-.278 1.176-.75 2.319-1.458 3.374z" fill="#2266d3"/></g></g></g></svg>