<svg xmlns="http://www.w3.org/2000/svg" width="150" viewBox="0 0 768 768" height="768" version="1.0"><defs><clipPath id="a"><path d="M 290.003906 291.882812 L 471.503906 291.882812 L 471.503906 476.382812 L 290.003906 476.382812 Z M 290.003906 291.882812"/></clipPath></defs><path fill="#FFF" d="M-76.8 -76.8H844.8000000000001V844.8000000000001H-76.8z"/><path fill="#FFF" d="M-76.8 -76.8H844.8000000000001V844.8000000000001H-76.8z"/><path fill="#FFF" d="M-76.8 -76.8H844.8000000000001V844.8000000000001H-76.8z"/><g clip-path="url(#a)"><path fill="#3D3838" d="M 461.625 422.449219 C 455.867188 418.789062 447.878906 415.382812 439.148438 412.855469 C 430.496094 410.347656 421.984375 408.96875 415.183594 408.96875 C 405.976562 408.96875 400.558594 411.5 399.0625 416.554688 C 399.058594 416.566406 398.476562 418.625 397.738281 421.089844 C 397.703125 421.222656 397.664062 421.378906 397.628906 421.53125 L 396.011719 427.144531 C 394.15625 426.617188 392.480469 425.613281 391.125 424.195312 L 342.332031 373.457031 C 340.382812 371.425781 339.34375 368.714844 339.351562 365.867188 C 339.683594 365.765625 340.027344 365.664062 340.378906 365.558594 C 342.191406 365.753906 343.84375 365.425781 345.042969 364.71875 L 352.164062 360.789062 C 354.074219 359.722656 355.664062 358.839844 355.828125 358.746094 C 356.007812 358.671875 356.1875 358.582031 356.355469 358.488281 C 365.789062 353.226562 359.371094 333.714844 351.007812 318.601562 C 348.539062 314.140625 335.636719 291.882812 324.070312 291.882812 C 322.621094 291.882812 321.265625 292.21875 320.046875 292.882812 C 319.980469 292.921875 319.914062 292.960938 319.851562 293 L 315.929688 295.167969 C 315.792969 295.238281 315.636719 295.332031 315.488281 295.429688 C 309.683594 298.625 305.472656 302.0625 300.996094 307.261719 C 298.085938 310.644531 295.699219 314.308594 293.898438 318.15625 C 290.246094 325.964844 289.179688 334.378906 290.886719 341.898438 C 293.257812 364.515625 311.179688 394.703125 340.117188 424.800781 C 367.3125 453.09375 399.066406 472.679688 422.992188 475.914062 C 425.328125 476.230469 427.492188 476.382812 429.601562 476.382812 C 436.875 476.382812 443.332031 474.480469 449.332031 470.558594 C 458.703125 464.445312 464.933594 455.8125 469.515625 442.621094 C 469.582031 442.433594 469.65625 442.195312 469.71875 441.941406 L 470.390625 439.625 C 470.6875 438.621094 470.902344 437.878906 470.910156 437.828125 C 470.96875 437.675781 471.023438 437.519531 471.070312 437.359375 C 472.519531 432.363281 469.34375 427.34375 461.625 422.449219 Z M 461.625 422.449219"/></g></svg>