<svg id="SvgjsSvg1001" width="288" height="288" xmlns="http://www.w3.org/2000/svg" version="1.1" xmlns:xlink="http://www.w3.org/1999/xlink" xmlns:svgjs="http://svgjs.com/svgjs"><defs id="SvgjsDefs1002"></defs><g id="SvgjsG1008" transform="matrix(1,0,0,1,0,0)"><svg xmlns="http://www.w3.org/2000/svg" enable-background="new 0 0 490.688 490.688" viewBox="0 0 490.688 490.688" width="288" height="288"><path fill="#ffc107" d="M472.328,120.529L245.213,347.665L18.098,120.529c-4.237-4.093-10.99-3.975-15.083,0.262
	c-3.992,4.134-3.992,10.687,0,14.82l234.667,234.667c4.165,4.164,10.917,4.164,15.083,0l234.667-234.667
	c4.237-4.093,4.354-10.845,0.262-15.083c-4.093-4.237-10.845-4.354-15.083-0.262c-0.089,0.086-0.176,0.173-0.262,0.262
	L472.328,120.529z" class="colorffc107 svgShape"></path><path d="M245.213,373.415c-2.831,0.005-5.548-1.115-7.552-3.115L2.994,135.633c-4.093-4.237-3.975-10.99,0.262-15.083
	c4.134-3.992,10.687-3.992,14.82,0l227.136,227.115l227.115-227.136c4.093-4.237,10.845-4.354,15.083-0.262
	c4.237,4.093,4.354,10.845,0.262,15.083c-0.086,0.089-0.173,0.176-0.262,0.262L252.744,370.279
	C250.748,372.281,248.039,373.408,245.213,373.415z" fill="#fbfbfb" class="color000 svgShape"></path></svg></g></svg>