<svg id="SvgjsSvg1001" width="288" height="288" xmlns="http://www.w3.org/2000/svg" version="1.1" xmlns:xlink="http://www.w3.org/1999/xlink" xmlns:svgjs="http://svgjs.com/svgjs"><defs id="SvgjsDefs1002"></defs><g id="SvgjsG1008" transform="matrix(1,0,0,1,0,0)"><svg xmlns="http://www.w3.org/2000/svg" data-name="Layer 1" viewBox="0 0 657.73 653.24" width="288" height="288"><path fill="#a52024" d="M962.44 428.43V409.52l295.29 130.86v22.39zM961.82 428.43V409.52L659.69 540.38v22.39z" transform="translate(-630.41 -213.29)" class="color9a9898 svgShape"></path><path d="M912.19,390.27c-1.55-.81-3.05-1.74-4.67-2.49-6.73-2.93-13.39-5.86-20.18-8.66a47.39,47.39,0,0,0-5.36-1.49,14.08,14.08,0,0,1-2.74-.94c-4.49-2.18-8.91-4.61-13.46-6.6s-9.09-3.24-13.45-5.3c-4.86-2.3-10.16-3.49-14.7-6.54-3.31-2.18-6-.5-6.86,3.49a28.5,28.5,0,0,1-2.36,7.6,7.72,7.72,0,0,1-7.79,4.42c-2.43-.25-5.11-.62-6.6,1.93a44.49,44.49,0,0,0-3.62,7.36c-1.31,3.3-2.18,6.72-3.42,10a4.63,4.63,0,0,0,2.24,6.16c3.67,2.06,4.61,5.48,2.93,9.22-1.44,3.12-2.43,6.48-3.68,9.72-1.49,3.68-2.93,7.29-4.61,10.84-1.12,2.31-5.29,3.43-8,2.12-6-2.87-12-5.92-18.07-8.85-1-.5-2.24-.43-3.24-.87-4.61-2.18-9.09-4.55-13.7-6.6a39,39,0,0,0-7.66-2.74,4.08,4.08,0,0,1-3.31-3.12,2.93,2.93,0,0,1,1.44-3.74,4,4,0,0,0,1.37-1.8c2.92-6.79,5.67-13.71,8.72-20.5,1.24-2.86,2.68-3.24,5.61-2.43,3.36.94,6.29-.68,8.09-4.55,1.56-3.36,3.49-6.6,4.43-10.15.81-3.05,1.49-6.42-1.31-9.34-3.8-3.87-3.74-7-1.37-12.09,2.12-4.61,3.49-9.47,5.29-14.2,1.06-2.68,2.56-5.17,3.68-7.79,1.74-4.17,3.24-8.47,5-12.65s3.8-8.47,5.61-12.77,3.24-8.78,5-13.14,3.68-8.35,5.67-12.46a70.85,70.85,0,0,1,4.55-8.22c2.43-3.62,5-7.11,7.79-10.47s5.6-6.29,8.47-9.41c.62-.68,1.37-1.3,2.06-2,1.12-1.12,2.24-2.18,3.36-3.3.12-.13.19-.31.31-.38,4.55-2.05,6.79-7.22,11.9-8.59a6.62,6.62,0,0,0,3.3-1.93c3.18-3.74,7.66-5,12-6.54s8.35-3.12,12.4-4.86a25.78,25.78,0,0,1,11.84-2.31,6.66,6.66,0,0,1,2.3,1,6.08,6.08,0,0,1-1.25,2.18c-2.49,2.24-5.29,4.23-7.66,6.66-2.61,2.62-4.86,5.49-7.22,8.29a66.94,66.94,0,0,0-4.18,5.23,132.28,132.28,0,0,0-8,11.78A218,218,0,0,0,849,268.73a89.59,89.59,0,0,0-5.24,17.51c-.81,4-.25,8.28.07,12.39a4.81,4.81,0,0,0,2.18,3c4.23,3.06,7.22,8.29,3.67,14.4a57.33,57.33,0,0,0-2.8,5.6c-.81,1.81-.44,3.43,1.49,4.3s4.12,1.43,6.11,2.24,3.61,1.81,5.48,2.56c4.67,1.8,9.41,3.36,14,5.17,2.43.93,4.73,2.3,7.16,3.36,2.62,1.19,5.3,2.31,8,3.37,3.67,1.49,7.41,2.8,11,4.29,4.67,1.94,9.28,4,14,5.92,6.35,2.62,12.7,5.17,19,7.73a1,1,0,0,1,.62.37c2.8,4.67,8.16,4.67,12.33,6.73,2.87,1.43,6.11,2,9,3.49,3.49,1.74,6.61.74,9.78-.5,5.55-2.18,11.09-4.3,16.64-6.48a4.26,4.26,0,0,0,1.43-.87c3.93-4.3,9.41-5.8,14.52-8s10.71-3.48,15.57-6.47c2.55-1.56,5.73-2.12,8.53-3.18,3.06-1.19,6.11-2.43,9.22-3.68,5.17-2.05,10.34-4.23,15.52-6.23,2.74-1.12,5.73-1.74,8.34-3.17a73.21,73.21,0,0,1,13.33-5.61,17.11,17.11,0,0,0,1.56-.75c2.56-1.31,2.87-2.8,1.5-5.29a42.56,42.56,0,0,1-3.24-7.29,9.76,9.76,0,0,1,4.17-11.59,5.66,5.66,0,0,0,2.8-5.29,80.54,80.54,0,0,0,0-8.79,65.73,65.73,0,0,0-2.11-9.09c-.69-2.49-1.62-4.86-2.56-7.29-1.06-2.81-2.12-5.55-3.3-8.29-1.31-3.11-2.49-6.29-4.11-9.28a114.33,114.33,0,0,0-6.85-11c-2.56-3.67-5.86-6.85-8.16-10.65-3.06-5-7.54-8.53-11.47-12.71-1.06-1.12-2.55-1.74-3.67-2.8a11.47,11.47,0,0,1-1.62-2.49c.93-.38,1.87-1.12,2.74-1.06,3,.25,6,.37,8.85,1.37,7.53,2.68,15,5.73,22.36,8.6a2.91,2.91,0,0,1,1.18.81c2.68,2.92,6.23,4.42,9.66,6.23s6,4.67,8.85,7.16c1.49,1.31,2.86,2.74,4.23,4.17,1.87,1.94,3.8,3.87,5.55,5.92,3.24,3.86,6.79,7.6,9.53,11.84,4.42,7,8.47,14.2,12.27,21.62,2,3.86,3,8.16,4.55,12.21,1,2.67,2.3,5.29,3.36,8,2.56,6.42,5,12.89,7.66,19.31.88,2.18,2.31,4.24,3.12,6.48,1.37,3.61,2.43,7.29,3.74,10.9a27.55,27.55,0,0,0,3,6.6c3,4.3,1.8,8.48-1,11.34s-2.8,6.11-2.06,9c1.37,5.11,3.31,10.16,6.86,14.27a5.1,5.1,0,0,0,6,1.31,3.63,3.63,0,0,1,5,1.68,82,82,0,0,1,4.3,9.47c1.75,4.23,3.43,8.53,5.11,12.83a1.68,1.68,0,0,0,.81.81,2.86,2.86,0,0,1,1.74,3.8,4.29,4.29,0,0,1-3.73,3.18,36.2,36.2,0,0,0-7.79,3.05c-4.92,2.37-9.41,5.67-15,6.67-1.25.25-2.37,1.3-3.62,1.87-5.23,2.49-10.46,5-15.76,7.41a6.34,6.34,0,0,1-8.72-3.61c-2.8-6.86-5.54-13.71-8.35-20.56-.93-2.31.69-6.17,3.12-7.54,3.11-1.74,3.8-3.49,2.49-6.73-2-5.23-4-10.53-6.1-15.76a4.63,4.63,0,0,0-4.18-3.24c-1.43-.06-2.93.06-4.42,0-3.24,0-6.35-2.8-7.1-5.92a59.65,59.65,0,0,0-2.49-7.85c-1-2.49-3.12-3.24-5.55-2.05-1.24.62-2.37,1.37-3.61,1.93-1.93.87-4,1.56-6,2.37-1.81.74-3.49,1.68-5.24,2.49-3,1.37-6,2.8-9,4.05-5,2.12-10.15,4-15.2,6.1-8.16,3.37-16.32,6.73-24.42,10.09-3.42,1.44-6.79,2.87-10.21,4.37a15.83,15.83,0,0,0-1.87,1.37c3.8,1.62,7,3.11,10.4,4.42,7.1,2.8,14.27,5.48,21.37,8.28l29.59,11.59c8.53,3.37,16.94,6.92,25.48,10.28,9.72,3.8,19.5,7.48,29.21,11.28,7.6,3,15.2,6.23,22.8,9.22,9.41,3.73,18.88,7.35,28.29,11.08s18.93,7.6,28.47,11.34c8.9,3.49,17.87,6.79,26.78,10.28,7.79,3.05,15.51,6.29,23.24,9.41,6.54,2.61,13.21,5,19.69,7.91,8.22,3.67,13.14,10.59,16.57,18.56,2.12,4.92-1.12,15.39-5.42,18.69a49.23,49.23,0,0,1-4.8,3.18,3.55,3.55,0,0,0-2.12,3.49c.07,1.31-.06,2.61-.06,3.92V866.53H643.2V544.39c0-.81-.06-1.62,0-2.43.25-3-.62-4.86-3.61-6.48-6.11-3.3-8.79-8.9-9.16-15.94-.31-5.73,2.62-9.78,5.54-14,5-7.48,12.71-10.65,20.75-13.58,7.47-2.74,14.83-5.79,22.24-8.78,7.22-2.87,14.51-5.8,21.74-8.66,12.09-4.8,24.17-9.66,36.26-14.46s24.48-9.4,36.63-14.2c7.6-3,15.13-6.23,22.8-9.22,10.52-4.11,21.18-8.1,31.71-12.21,9.34-3.68,18.62-7.6,28-11.28s19.06-7.35,28.53-11.08c7.6-3,15.2-6.11,22.8-9.16l4.67-1.87C912,390.9,912.13,390.58,912.19,390.27Zm45,22c-9.53,4-19.06,8.1-28.53,12.15-7.29,3.12-14.58,6.23-21.8,9.34-13.89,6-27.79,11.9-41.62,17.95-8.59,3.73-17.19,7.53-25.79,11.21-9.53,4-19.06,8-28.59,12.08C799.19,480,787.6,485.21,776,490.26c-13.39,5.79-26.91,11.52-40.3,17.32-9,3.86-17.88,7.91-26.85,11.77-7.91,3.43-15.95,6.73-23.86,10.09-7.6,3.24-15.14,6.6-22.68,9.84a3.58,3.58,0,0,0-2.49,3.8c.13,7.85-.06,15.64-.06,23.49V844.35c0,4.42-.19,3.8,3.8,3.8H1255.7c1.8,0,2.55-.69,2.55-2.62q-.09-132.31-.06-264.57c0-12.9-.5-25.85-.69-38.75a2.84,2.84,0,0,0-1.93-3q-12.33-5.33-24.67-10.78-18.12-7.85-36.26-15.63c-10.09-4.36-20.24-8.6-30.33-12.9s-19.88-8.53-29.84-12.83c-11.78-5.11-23.61-10.15-35.39-15.26-8.1-3.49-16.13-7.1-24.23-10.59-10.65-4.61-21.43-9.1-32.08-13.71-6-2.55-12-5.29-18-7.85-12.77-5.48-23.94-12.52-36.77-18-5.88-3.81-14.39-6.85-20.87-9.41A12.59,12.59,0,0,0,957.17,412.26Z" transform="translate(-630.41 -213.29)" fill="#a52024" class="color000 svgShape"></path><path d="M914.37 735.89h-3.73c-10.22-.06-20.37-.12-30.59-.12a3.4 3.4 0 01-3.55-2.12q-7.57-14.86-15.26-29.66c-4.86-9.46-9.85-18.87-14.58-28.34a4 4 0 00-4.24-2.55c-5.67.12-11.33.06-17.32.06-.18 20.62.07 41.05-.43 61.55H790c-.06-.94-.12-1.75-.12-2.5.06-10.83.06-21.67.18-32.51q.48-42.44 1-84.79c.25-19.81.56-39.56.81-59.37 0-2 .69-2.61 2.68-2.61 22.74.37 45.48.31 68.15 1.12A51.56 51.56 0 01893 565.39a58.2 58.2 0 0117.56 21A44.93 44.93 0 01915 600.15a110.51 110.51 0 01.81 23.05 49.29 49.29 0 01-10 25.54 63.06 63.06 0 01-23.11 18.69c-1.5.74-2.25 1.31-1.13 3.42 10.84 20.81 21.5 41.74 32.15 62.67C913.88 734.15 914.06 734.83 914.37 735.89zM825.91 639a39.49 39.49 0 004.43.68c7.35.13 14.64.38 22 .13a33.1 33.1 0 0010.78-1.87 25.11 25.11 0 0016.44-19.75c1.37-7.35.13-14.58-4.92-20.62-4.24-5-9.41-8.91-16.07-9.34-9.91-.69-19.81-.63-29.72-.94-2.05-.06-2.86.69-2.86 2.81.06 10.9-.07 21.8-.07 32.76zM1032.05 666.37c16.45.37 32.33.68 48.9 1.06-1.12-3.24-1.86-5.92-2.92-8.54-2.68-6.91-5.49-13.83-8.23-20.74a2 2 0 010-1.44q3.38-8.6 6.86-17.19c2.49-6.17 5-12.33 7.53-18.5a54.56 54.56 0 013.93-8.22q27.2 72.69 54.45 145.52a3.06 3.06 0 01-.94.31c-11.15 0-22.36-.06-33.51-.12-2.87 0-2.62-2.62-3.18-4.11-2.68-7.17-5.11-14.52-7.66-21.75-1.13-3.17-2.37-6.29-3.18-9.47-.5-2-1.62-2.49-3.43-2.55q-25.32-.09-50.64-.25c-6.3 0-12.59 0-18.82-.12-2-.07-2.86.74-3.55 2.43-2.37 5.85-4.86 11.65-7.29 17.5-2.12 5-4.23 10.09-6.41 15.08a3 3 0 01-1.93 1.55q-16.63 0-33.27-.18a1.94 1.94 0 01-.69-.25c3.24-8.22 6.42-16.39 9.66-24.48 3.43-8.6 7-17.07 10.4-25.67s6.73-17.38 10.16-26.1c3.05-7.73 6.35-15.33 9.4-23 4-10.28 8-20.56 12.09-30.84 3.43-8.59 7-17.13 10.47-25.73 3-7.66 6-15.32 9.09-23a3.23 3.23 0 012.37-1.75c9.16-.06 18.25 0 27.41.13a28.42 28.42 0 014.55.56c1.55.25 2.24 1.68 1.55 3.36-3.73 9.16-7.6 18.32-11.27 27.47-3.12 7.73-6 15.52-9.16 23.24-3.36 8.35-6.91 16.63-10.34 25-3.12 7.6-6.11 15.26-9.16 22.93C1034.29 661 1033.24 663.5 1032.05 666.37zM996.24 477.3c1 .31 1.68.31 2.12.68 4.86 4.12 8.78 8.91 10.78 15 1.68 5.42 3.24 10.84 4.67 16.32a10.16 10.16 0 01.06 4.11c-.5 3.49 1.31 5.55 4.11 7.1a8.07 8.07 0 014.11 4.36c.75 1.93 0 3.12-.93 4.3-3 3.86-7.35 5.67-11.9 7-3.36.93-6.73 1.87-10.15 2.68a35.08 35.08 0 01-7.17 1.18c-14.45.44-29 .81-43.42 1A112.78 112.78 0 01932.76 540a93.45 93.45 0 01-29.4-8.66 5.08 5.08 0 01-.81-.5c-4.43-3.18-3.8-6.1.62-9 3.86-2.56 5.3-5.36 5.42-10 .25-12.52 3.92-23.92 13.39-32.83a22.09 22.09 0 013-1.93c0 4.92-.06 9.1.07 13.33a17.91 17.91 0 00.87 5.42 6.19 6.19 0 007.35 4.24 6.94 6.94 0 005.36-6.67V473.06c0-4.36.56-5.17 4.79-6.16 3.49-.88 7-1.56 10.91-2.37v-6.36H968v6.36c3.61.81 7 1.49 10.34 2.3a22 22 0 013.86 1.25 2.65 2.65 0 011.68 2.8c-.06 7.6-.06 15.14-.06 22.74 0 3.86 2.62 6.54 6.36 6.48s6-2.68 6.1-6.54zm-88.71 48.84a8.06 8.06 0 001.87 1.18c5.48 1.69 10.9 3.74 16.51 4.92 6 1.31 12.27 2.62 18.38 2.68 15.51.13 31.08-.5 46.59-.81a8.15 8.15 0 001.19-.18c3.92-.88 7.85-1.62 11.71-2.74A61.09 61.09 0 001013 528c2.49-1.19 2.37-1.75 0-3.31-2.68-1.74-4.61-4-5.11-7.28-.37-2.87-.56-5.8-.93-8.66a24.72 24.72 0 00-.94-3.49c-1-3.8-2-7.66-3-11.46-.75 1.49-.75 3-1.31 4.23-2.55 5.61-6.67 8.35-13.14 8.22-4.55-.12-11.4-6.6-11.09-11.27.43-6.42.12-12.83.12-19.31 0-.87-.06-1.75-.12-3.05-5.24-.69-10.28-1.31-15.58-2 0-1.68.07-3.24-.06-4.8A6.07 6.07 0 00961 464a6.29 6.29 0 00-.87 1.87c-.12 1.56-.06 3.18-.06 4.67-5.55.69-10.59 1.37-15.7 2.06 0 7.29-.25 14 .06 20.68.25 4.61-1.74 7.72-5 10.28-5.8 4.42-15 3.11-18.63-3.68a60.67 60.67 0 01-2.43-5.92c-.25.63-.62 1.31-.87 2.06-1.87 5.17-3.3 10.59-3.12 16C914.82 518.17 913.14 522.78 907.53 526.14zM936.43 736c-11 .44-18.07-8.78-18.32-18.56a18.54 18.54 0 1137.07-.44C955.05 727.42 947.64 736.45 936.43 736z" transform="translate(-630.41 -213.29)" fill="#a52024" class="color000 svgShape"></path><path fill="#a52024" d="M907.53,526.14c5.61-3.36,7.29-8,7-14.08-.25-5.42,1.25-10.84,3.12-16,.25-.75.62-1.43.87-2.06a60.67,60.67,0,0,0,2.43,5.92c3.67,6.79,12.83,8.1,18.62,3.68,3.31-2.56,5.3-5.67,5-10.28-.37-6.67-.06-13.33-.06-20.68,5.11-.69,10.21-1.31,15.7-2.06,0-1.49-.07-3.11.06-4.67a6.29,6.29,0,0,1,.87-1.87,6.89,6.89,0,0,1,.75,1.74c.12,1.56.06,3.06.06,4.8,5.3.69,10.34,1.31,15.57,2,.07,1.24.13,2.18.13,3.05,0,6.41.31,12.89-.13,19.31-.31,4.67,6.55,11.15,11.09,11.27,6.48.13,10.59-2.61,13.15-8.22.56-1.24.56-2.74,1.31-4.23,1,3.8,2,7.66,3.05,11.46a23.39,23.39,0,0,1,.93,3.49c.38,2.86.56,5.79.94,8.66.43,3.24,2.36,5.54,5.11,7.28,2.36,1.5,2.49,2.12,0,3.31a61.09,61.09,0,0,1-9.22,3.24c-3.87,1-7.85,1.8-11.72,2.74a8,8,0,0,1-1.18.18c-15.51.31-31.09.94-46.6.81a87,87,0,0,1-18.37-2.68c-5.61-1.24-11-3.23-16.51-4.92A6.8,6.8,0,0,1,907.53,526.14Z" transform="translate(-630.41 -213.29)" class="color31a2c8 svgShape"></path><path fill="#a52024" d="M659.06,846.36c1.12,0,2.31.06,3.43.06h590.38c1.31,0,2.61.06,3.92.06-.31.31-.5.81-.87.87a12,12,0,0,1-2.18.06q-295.85,0-591.75-.06C661.06,847.35,659.44,848.47,659.06,846.36Z" transform="translate(-630.41 -213.29)" class="color9d9c9c svgShape"></path><path fill="#a52024" d="M992.66 806.24H952.91c-1.74 5.6 1.62 10.71 5.36 13.83 4.74 3.86 10.28 4.42 16 3.8a14.09 14.09 0 008.47-4.18 4.87 4.87 0 015-1.49c1.19.25 2.12.93.81 2.24a26.9 26.9 0 01-10.65 6.6 25.24 25.24 0 01-12.89.56 20.8 20.8 0 01-13.65-8.84c-2.55-3.74-4.17-7.73-3.61-12.15a19.83 19.83 0 017-13.21c5.67-4.73 12-6 19.06-5.67 6.73.38 15.82 7 17.75 13.21A53.12 53.12 0 01992.66 806.24zm-5.23-4c-3.93-8.85-14.21-12.58-23.55-9.59-3.93 1.3-10.34 6.35-10.09 9.59zM825 819.63c-5.11 5.17-10.9 8.29-18.57 8.35-7.1.06-12.89-2.18-17.69-7.1-4.05-4.12-6.23-9.29-5.29-15.08 1.18-7.6 5.73-12.83 12.7-16.13a23.35 23.35 0 0113.9-1.81c7.78 1.31 13.89 5.48 17.13 13 .68 1.55.75 3.36 1.18 5.35H788.51c-1.74 5.74 2 11.09 5.67 14 4.8 3.74 10.22 4.24 15.76 3.61a14.63 14.63 0 008.66-4.36C820.72 817.33 823.21 817.45 825 819.63zm-36.13-17.44h34.32c-4.73-9.28-14.7-12.46-23.61-9.47A18.69 18.69 0 00788.83 802.19z" transform="translate(-630.41 -213.29)" class="color37a7cf svgShape"></path><path fill="#a52024" d="M1178.18,775.34c-2,2.68-2.43,3.36-5.61,1.31-2.56-1.62-5.61-2.56-8.47-3.68-4.74-1.93-9.78-1.18-14.58-.81a23.77,23.77,0,0,0-11.34,4.49c-4.55,3.05-8.22,6.85-10.15,12a33.63,33.63,0,0,0-1.56,7.6C1125,808,1133.2,816.7,1142,821a31,31,0,0,0,17.63,2.68c5.49-.69,10.84-2.49,15.14-6.42,1.06.75,2.06,1.5,3.61,2.56-2.74,1.74-5.1,3.61-7.78,4.86a36.75,36.75,0,0,1-19.63,3,33.43,33.43,0,0,1-14.39-4.86c-5-3.43-9.59-7.42-12.14-13.08-2.43-5.49-3.62-11-2.18-17.2a29.31,29.31,0,0,1,9.71-16.44,35.37,35.37,0,0,1,14-7.17c5.48-1.43,11-1.06,16.38-.56,5,.44,9.66,2.93,13.83,5.92.25.19.44.43.69.62C1177.37,775.09,1177.68,775.15,1178.18,775.34Z" transform="translate(-630.41 -213.29)" class="color38a8cf svgShape"></path><path fill="#a52024" d="M758.67 767.74c5.3-.25 9.16 2.12 12.09 6.17.5.68.31 1.8.44 2.74-1.19-.07-2.5.12-3.56-.38-.87-.37-1.37-1.62-2.11-2.36-3.12-2.93-7-2.25-10.53-1.75-5.3.81-7.6 8.85-4.17 13 2.86 3.49 6.79 5.11 10.83 6.41a29.11 29.11 0 0113.77 9.35c4.05 4.92 4 13.08.19 18.31-5.11 7.11-12.21 9.54-20.37 8.41-6.67-.93-11.59-5.1-14.89-11a4.51 4.51 0 01-.75-2.87 2.58 2.58 0 012-1.43c.81-.06 2.18.56 2.3 1.12 1.25 5.23 4.92 7.85 9.59 9.59a16 16 0 0011.9-.24c3.74-1.44 6.85-4.12 7.91-8.1 2.18-8.35-1.3-14.52-9.65-18.19-3.93-1.69-7.91-3.18-11.78-5.05a12.77 12.77 0 01-6.79-14.58c1-3.67 3.87-6.23 7.29-7.72C754.44 768.42 756.62 768.24 758.67 767.74zM942.63 796c-2.67 2.12-3.36 1.87-5.91 0a27 27 0 00-7-3.36 16.85 16.85 0 00-5.55-.94c-8 .06-14.82 4.55-17.38 12.09a14.24 14.24 0 001.68 12 17.11 17.11 0 0011.4 7.91c5.49 1.12 11.34.81 15.95-3.18 2.31-2 4.11-3.3 7-.87-1 2.62-3.68 3.68-5.86 5.17-5.54 3.8-12 3.8-18 2.68a20.49 20.49 0 01-13.58-9c-2.37-3.67-4.05-7.41-3.55-11.65.62-5.36 2.61-10 7.1-13.64A24.09 24.09 0 01926 787.67 22.5 22.5 0 01942.63 796zM1051.47 768.24h3.67v54.82h22.37c2.92 0 3.3.43 2.86 3.67h-28.9zM1091.27 823.06h22.37c2.92 0 3.3.43 3 3.61h-29V768.3h3.61z" transform="translate(-630.41 -213.29)" class="color37a7cf svgShape"></path><path fill="#a52024" d="M1008.36 826.79c-6.61.44-10.28-2.74-12.59-8.16-.62-1.55.5-2.24 1.5-2.36s2.74.24 2.93.87c1.62 4.67 2.92 5.85 7.6 5.85 4.05.07 7-2 8.16-5.48.68-2-1.19-5.85-3.55-7.22-2.93-1.69-5.86-3.49-8.91-5-3.37-1.62-4.43-4.8-4.8-7.85-.37-3.24 3.43-6.73 6.6-7.91 5-1.93 8.54-.06 11.65 3.49 1.87 2.12 1.31 4.36-1.3 5.11-.38.12-1.38-.63-1.56-1.12-.87-2.87-3.49-4.86-6.17-4.43a5.43 5.43 0 00-4.55 6.54 6.09 6.09 0 002.56 3.06c3.24 2.11 6.79 3.86 10 6 4.61 3.18 5.61 10.22 1.81 14.39C1015.15 825.61 1012.09 827.67 1008.36 826.79zM847.82 792.66c.25-.63.56-1.87.81-1.87 1.31.06 3.43.06 3.86.81 3.18 6 6 12.27 9 18.44 1.31 2.8 2.62 5.6 4 8.41a1 1 0 00.87.56 1.63 1.63 0 001-.69c3.93-8 7.91-15.88 11.77-23.92 1.87-3.86 1.75-3.92 6.3-3.49-1 2.31-1.81 4.42-2.87 6.48-3.43 6.85-6.91 13.71-10.34 20.56-1.37 2.74-2.62 5.54-4 8.28-.62 1.19-3 .75-3.74-.74-3.05-6.17-6-12.34-9-18.51-2.31-4.67-4.55-9.34-6.91-14 0-.19-.44-.25-.69-.31z" transform="translate(-630.41 -213.29)" class="color38a8cf svgShape"></path><path fill="#a52024" d="M847.76 792.59c.06 1 .18 1.62-1.25 2.06a14.69 14.69 0 00-9.09 8.53 7.11 7.11 0 00-.38 2.56v20.81a12.19 12.19 0 00-1.74.24c-2.49.44-3.12-.56-3-3 .12-10.09.06-20.18.06-30.27 0-2.81.5-3.31 3.3-2.81A2 2 0 01837 792.1a35.86 35.86 0 01.06 4.61 48.33 48.33 0 013.68-3.24 29.35 29.35 0 013.74-2.5c1.12-.62 2.18-.62 2.49 1.06 0 .25.56.44.81.56zM889.87 826.73V792.34c0-2 1.31-1.55 2.49-1.68 1.62-.12 2.37.44 2.31 2.18-.07 7.67 0 15.27 0 22.93 0 2.68-.19 5.36.06 8s-.75 3.43-3.12 3C891.12 826.79 890.68 826.79 889.87 826.73z" transform="translate(-630.41 -213.29)" class="color42acd2 svgShape"></path><path fill="#a52024" d="M892.24,778.08c1.49,0,4.36,2.62,4.23,3.92s-2.92,3.68-4.23,3.68c-1.69,0-4.24-2.37-4.24-3.8S890.62,778,892.24,778.08Z" transform="translate(-630.41 -213.29)" class="color38a8cf svgShape"></path></svg></g></svg>